<svg preserveAspectRatio="none" width="100%" height="100%" overflow="visible" style="display: block;" viewBox="0 0 32 26" fill="none" xmlns="http://www.w3.org/2000/svg">
<g id="brandico:github" clip-path="url(#clip0_653_294)">
<path id="Vector" d="M28.1145 -0.0266974C27.2498 -0.0394634 25.2412 0.253505 21.8875 2.49364C20.0597 2.03773 18.1149 1.81275 16.1668 1.81275C14.0234 1.81275 11.8573 2.0844 9.83722 2.63744C5.02229 -0.640817 2.89703 0.0309966 2.89703 0.0309966C1.50958 3.49375 2.36696 6.05748 2.62756 6.6942C0.996806 8.45071 0.00127205 10.6937 0.00127205 13.4427C0.00127205 15.5181 0.23795 17.3795 0.816191 18.9977C0.84826 19.1226 0.837866 19.0947 0.891897 19.2017C1.01929 19.5366 1.16093 19.8618 1.32013 20.1758C1.37468 20.2888 1.42434 20.3725 1.42434 20.3725C3.04983 23.3964 6.25419 25.3498 11.9555 25.9632L20.5785 25.9729C26.6587 25.3712 29.5763 23.412 30.9208 20.3676L31.0062 20.1693C31.1336 19.8618 31.2447 19.5418 31.5485 18.4647C31.8522 17.3876 31.9881 15.5222 31.9881 13.4419C31.9881 10.4583 30.8653 8.0709 29.0419 6.25462C29.3605 5.22814 29.7861 2.94851 28.6169 0.0301646C28.6169 0.0301646 28.4529 -0.0217054 28.1146 -0.0267234L28.1145 -0.0266974ZM21.3193 10.9224C22.7233 10.9193 23.9259 11.1599 24.8289 12.1053V12.1061C25.9587 13.2902 26.6199 14.7198 26.6199 16.2604C26.6199 23.4535 21.9845 23.6491 16.267 23.6491C10.5485 23.6491 5.91409 22.6524 5.91409 16.2604C5.91409 14.73 6.56561 13.309 7.68151 12.1297C9.54292 10.1644 12.6929 11.2051 16.267 11.2051C18.1016 11.2048 19.8247 10.9256 21.3193 10.9223L21.3193 10.9224ZM10.6692 13.0405C9.47953 13.0405 8.51508 14.6458 8.51508 16.6269C8.51508 18.6082 9.47948 20.214 10.6692 20.214C11.8589 20.214 12.8233 18.6082 12.8233 16.6269C12.8233 14.6461 11.8589 13.042 10.6692 13.0405ZM22.227 13.0405C21.0373 13.0405 20.0728 14.6458 20.0728 16.6269C20.0728 18.6082 21.0372 20.214 22.227 20.214C23.4166 20.214 24.3811 18.6082 24.3811 16.6269C24.3811 14.6461 23.4167 13.042 22.227 13.0405Z" fill="var(--fill-0, black)" fill-opacity="0.75"/>
</g>
<defs>
<clipPath id="clip0_653_294">
<rect width="32" height="26" fill="white"/>
</clipPath>
</defs>
</svg>
