<svg preserveAspectRatio="none" width="100%" height="100%" overflow="visible" style="display: block;" viewBox="0 0 32 32" fill="none" xmlns="http://www.w3.org/2000/svg">
<g id="icon-linkedin">
<path id="icon-linkedin_2" d="M9.25347 6.668C9.25312 7.37524 8.97183 8.05338 8.47148 8.55323C7.97113 9.05308 7.29272 9.33369 6.58547 9.33333C5.87823 9.33298 5.20009 9.05169 4.70024 8.55134C4.2004 8.051 3.91979 7.37258 3.92014 6.66533C3.92049 5.95809 4.20178 5.27995 4.70213 4.78011C5.20248 4.28026 5.88089 3.99965 6.58814 4C7.29538 4.00035 7.97352 4.28164 8.47337 4.78199C8.97321 5.28234 9.25383 5.96076 9.25347 6.668ZM9.33347 11.308H4.00014V28.0013H9.33347V11.308ZM17.7601 11.308H12.4535V28.0013H17.7068V19.2413C17.7068 14.3613 24.0668 13.908 24.0668 19.2413V28.0013H29.3335V17.428C29.3335 9.20133 19.9201 9.508 17.7068 13.548L17.7601 11.308Z" fill="var(--fill-0, black)" fill-opacity="0.75"/>
</g>
</svg>
