<svg width="64" height="64" viewBox="0 0 64 64" fill="none" xmlns="http://www.w3.org/2000/svg">
  <g transform="translate(4 15) scale(0.703)">
    <path
      d="M30.5391 37.2208V40.2527L2.53564 27.3535V24.3767L30.5391 11.4775V14.5093L5.95339 25.8651L30.5391 37.2208ZM31.1241 47.9702H30.2971C30.0766 47.9702 29.8561 47.9702 29.8561 47.7497C29.8561 47.4741 30.1869 46.8126 30.4074 46.2613L47.9923 1.49982C48.2128 0.89345 48.3782 0.783203 48.709 0.783203H49.7563C49.9768 0.783203 50.1973 0.783203 50.1973 1.0037C50.1973 1.27932 49.8666 1.99595 49.6461 2.49207L32.0612 47.2536C31.8407 47.86 31.6753 47.9702 31.1241 47.9702ZM50.9314 37.2208L75.5172 25.8651L50.9314 14.5093V11.4775L78.9349 24.3767V27.3535L50.9314 40.2527V37.2208Z"
      fill="#9D9D9D"
    />
  </g>
</svg>
